#!OML:ASF F:\VICON\USERDATA\INSTALL\rory3\rory3.ASF
:FULLY-SPECIFIED
:DEGREES
2234
root -1.03771 18.101 -1.63507 -2.97237 -10.8362 -0.722842
lowerback 11.957 -0.640706 -0.297232
upperback 1.20794 -0.94086 -0.783613
thorax -5.44796 -0.466723 -0.498467
lowerneck -10.3671 -5.83356 -8.81263
upperneck 4.4222 -7.25811 8.66361
head 3.64369 -3.37495 3.59572
rclavicle -2.01518e-014 -1.39149e-014
rhumerus -13.8691 21.1058 -80.1439
rradius 122.455
rwrist -10.0273
rhand -34.6142 8.14611
rfingers 7.12502
rthumb -7.77237 -21.691
lclavicle -2.01518e-014 -1.39149e-014
lhumerus -49.3314 -7.91691 87.7332
lradius 100.957
lwrist 29.2343
lhand -32.8572 14.0669
lfingers 7.12502
lthumb -6.07637 43.9597
rfemur -10.8191 18.0605 23.0357
rtibia 44.0722
rfoot -22.793 -8.50232
rtoes -9.43818
lfemur -20.606 8.04287 -10.2999
ltibia 64.3171
lfoot -11.6409 1.22101
ltoes -15.1136
2235
root -1.06305 17.9951 -1.66545 -3.3228 -11.2629 -0.545821
lowerback 12.4121 -0.511377 -0.481243
upperback 1.23007 -0.79706 -0.762685
thorax -5.6741 -0.391364 -0.39256
lowerneck -9.9479 -5.79601 -9.07778
upperneck 4.25746 -7.21318 8.8689
head 3.53994 -3.35959 3.71613
rclavicle 6.80837e-015 1.07344e-014
rhumerus -11.6736 20.9163 -78.9272
rradius 123.076
rwrist -9.52255
rhand -34.5995 7.81242
rfingers 7.12502
rthumb -7.75819 -22.0253
lclavicle 6.80837e-015 1.07344e-014
lhumerus -50.005 -7.921 88.3081
lradius 101.238
lwrist 28.7891
lhand -32.8784 13.9154
lfingers 7.12502
lthumb -6.09684 43.8077
rfemur -10.7246 18.2493 23.0188
rtibia 44.4326
rfoot -24.2078 -8.22676
rtoes -8.29723
lfemur -20.8311 8.68341 -10.0891
ltibia 66.1177
lfoot -11.9434 1.20932
ltoes -15.3955
2236
root -1.08308 17.8967 -1.69677 -3.63083 -11.7744 -0.602737
lowerback 12.9193 -0.402218 -0.426942
upperback 1.27847 -0.644701 -0.683629
thorax -5.90411 -0.316774 -0.363043
lowerneck -9.64448 -5.76033 -9.23875
upperneck 4.04946 -7.16727 8.99421
head 3.43469 -3.34284 3.79296
rclavicle 2.03754e-015 5.1684e-015
rhumerus -9.42308 20.6968 -77.7596
rradius 123.49
rwrist -9.11245
rhand -34.6952 7.63834
rfingers 7.12502
rthumb -7.85063 -22.1959
lclavicle 2.03754e-015 5.1684e-015
lhumerus -50.4886 -7.75594 88.8104
lradius 101.466
lwrist 28.3824
lhand -32.7685 13.6827
lfingers 7.12502
lthumb -5.99072 43.578
rfemur -10.6618 18.2247 23.2665
rtibia 44.778
rfoot -25.3839 -8.02165
rtoes -6.63345
lfemur -21.017 9.31145 -9.6271
ltibia 67.8079
lfoot -12.1645 1.15606
ltoes -15.4696
2237
root -1.09624 17.8106 -1.72683 -3.88635 -12.288 -0.790969
lowerback 13.5602 -0.293778 -0.264018
upperback 1.36815 -0.473997 -0.557146
thorax -6.16482 -0.23567 -0.34965
lowerneck -10.0707 -5.8161 -9.21784
upperneck 4.22004 -7.21584 8.95138
head 3.55718 -3.35693 3.76122
rclavicle 2.25869e-014 -2.78299e-015
rhumerus -7.04974 20.3361 -76.589
rradius 123.628
rwrist -8.67663
rhand -34.455 7.81068
rfingers 7.12502
rthumb -7.61878 -22.0321
lclavicle 2.25869e-014 -2.78299e-015
lhumerus -50.686 -7.51833 89.2746
lradius 101.618
lwrist 28.009
lhand -32.6572 13.7849
lfingers 7.12502
lthumb -5.88325 43.6832
rfemur -10.6369 17.9966 23.6568
rtibia 45.1628
rfoot -26.4027 -8.04119
rtoes -5.39085
lfemur -21.1376 9.90407 -9.04654
ltibia 69.3254
lfoot -12.451 0.933216
ltoes -14.3637
2238
root -1.10522 17.7461 -1.75566 -4.17896 -12.8466 -0.813038
lowerback 14.3208 -0.132503 -0.301209
upperback 1.47361 -0.262585 -0.427625
thorax -6.47307 -0.129966 -0.229903
lowerneck -10.9656 -5.91602 -9.21641
upperneck 4.70217 -7.29243 8.82568
head 3.84977 -3.37595 3.69113
rclavicle 9.59136e-015 1.19271e-015
rhumerus -4.74404 19.8936 -75.4372
rradius 123.571
rwrist -8.21717
rhand -33.8027 7.78444
rfingers 7.12502
rthumb -6.98909 -22.0802
lclavicle 9.59136e-015 1.19271e-015
lhumerus -50.7172 -7.25679 89.8609
lradius 101.625
lwrist 27.587
lhand -32.7413 13.8496
lfingers 7.12502
lthumb -5.96446 43.7457
rfemur -10.6123 17.8676 23.8675
rtibia 45.6378
rfoot -27.2807 -8.1177
rtoes -4.85262
lfemur -21.0802 10.4728 -8.69772
ltibia 70.5579
lfoot -12.6797 0.823615
ltoes -13.2118
2239
root -1.11238 17.6892 -1.7818 -4.47036 -13.4757 -0.601266
lowerback 14.771 0.0639342 -0.524464
upperback 1.59391 -0.0402988 -0.399722
thorax -6.59365 -0.0157545 -0.117857
lowerneck -11.3281 -5.93407 -9.22214
upperneck 4.81912 -7.28515 8.75067
head 3.94032 -3.36655 3.66016
rclavicle -2.03009e-014 -1.13307e-014
rhumerus -2.86265 19.4744 -74.6189
rradius 123.376
rwrist -7.47045
rhand -34.0599 8.29525
rfingers 7.12502
rthumb -7.23738 -21.561
lclavicle -2.03009e-014 -1.13307e-014
lhumerus -50.7037 -6.93087 90.3934
lradius 101.464
lwrist 27.2655
lhand -32.6602 13.395
lfingers 7.12502
lthumb -5.88617 43.2933
rfemur -10.7502 17.9738 23.804
rtibia 46.2762
rfoot -27.9473 -8.12355
rtoes -5.2327
lfemur -20.9778 10.9601 -8.67722
ltibia 71.5531
lfoot -12.9703 1.14478
ltoes -14.4219
2240
root -1.11991 17.6498 -1.80653 -4.44439 -14.0899 -0.328949
lowerback 14.7066 0.242397 -0.747511
upperback 1.66236 0.155874 -0.45939
thorax -6.48585 0.0843878 -0.0937817
lowerneck -11.4253 -5.88222 -9.22028
upperneck 4.758 -7.21011 8.81856
head 3.93353 -3.32423 3.68568
rclavicle -1.49089e-015 -3.18055e-015
rhumerus -1.30612 19.0927 -74.18
rradius 122.952
rwrist -6.57058
rhand -35.635 9.79691
rfingers 7.12502
rthumb -8.75762 -20.0014
lclavicle -1.49089e-015 -3.18055e-015
lhumerus -50.5648 -6.5043 90.7429
lradius 101.08
lwrist 27.1098
lhand -32.4183 13.1091
lfingers 7.12502
lthumb -5.65263 43.0137
rfemur -11.4302 18.2439 23.546
rtibia 47.0125
rfoot -28.0507 -8.10606
rtoes -5.24033
lfemur -21.1924 11.3816 -8.84934
ltibia 72.3255
lfoot -12.9431 1.41522
ltoes -14.9123
2241
root -1.12364 17.6256 -1.83316 -4.41127 -14.5463 -0.200721
lowerback 14.74 0.362134 -0.782744
upperback 1.73091 0.30508 -0.500601
thorax -6.4318 0.157026 -0.147144
lowerneck -11.5739 -5.84454 -9.2444
upperneck 4.67184 -7.1494 8.9426
head 3.93199 -3.28561 3.73069
rclavicle -5.83185e-014 -3.97569e-016
rhumerus 0.013018 18.6759 -73.9345
rradius 122.27
rwrist -5.6089
rhand -35.014 7.79171
rfingers 7.12502
rthumb -8.15827 -22.0308
lclavicle -5.83185e-014 -3.97569e-016
lhumerus -50.2914 -6.04597 91.0805
lradius 100.558
lwrist 27.0518
lhand -32.1768 13.3808
lfingers 7.12502
lthumb -5.4194 43.2915
rfemur -12.1412 18.4323 23.3918
rtibia 47.7459
rfoot -27.7675 -7.97933
rtoes -5.5304
lfemur -21.3823 11.5983 -8.9099
ltibia 72.9156
lfoot -12.814 1.41857
ltoes -12.7478
2242
root -1.12258 17.6126 -1.85274 -4.43585 -14.7599 -0.0797226
lowerback 14.7687 0.409847 -0.787489
upperback 1.81223 0.365337 -0.525845
thorax -6.36111 0.185726 -0.182936
lowerneck -11.685 -5.85461 -9.17493
upperneck 4.54447 -7.15451 8.91667
head 3.90815 -3.28594 3.70965
rclavicle -3.80176e-015 -8.34896e-015
rhumerus 0.899233 18.1257 -73.7164
rradius 121.542
rwrist -4.69334
rhand -35.4347 8.8878
rfingers 7.12502
rthumb -8.56433 -20.9185
lclavicle -3.80176e-015 -8.34896e-015
lhumerus -49.9578 -5.58434 91.5266
lradius 99.927
lwrist 27.1904
lhand -32.0398 13.9307
lfingers 7.12502
lthumb -5.28712 43.8448
rfemur -12.6493 18.3063 23.1779
rtibia 48.3121
rfoot -27.6028 -7.60285
rtoes -6.02914
lfemur -21.4841 11.5637 -9.05549
ltibia 73.3127
lfoot -13.2183 1.58933
ltoes -12.2441
2243
root -1.11723 17.6131 -1.87026 -4.41654 -14.7808 -0.0530853
lowerback 14.7438 0.402197 -0.729362
upperback 1.90231 0.3668 -0.501662
thorax -6.2513 0.184842 -0.189813
lowerneck -11.9273 -5.86089 -9.07461
upperneck 4.55834 -7.15485 8.86834
head 3.94592 -3.2805 3.67321
rclavicle 2.00524e-014 -2.5842e-015
rhumerus 1.37635 17.5453 -73.6036
rradius 120.785
rwrist -4.02518
rhand -35.7596 9.66712
rfingers 7.12502
rthumb -8.87778 -20.1261
lclavicle 2.00524e-014 -2.5842e-015
lhumerus -49.6064 -5.17204 92.0507
lradius 99.3633
lwrist 27.6819
lhand -31.9121 14.204
lfingers 7.12502
lthumb -5.16383 44.121
rfemur -12.9711 17.8875 22.9855
rtibia 48.5833
rfoot -27.4888 -7.03489
rtoes -5.77344
lfemur -21.5812 11.2796 -9.20462
ltibia 73.4889
lfoot -13.5928 1.82923
ltoes -12.0588
2244
root -1.10935 17.6316 -1.88203 -4.17405 -14.6016 -0.18634
lowerback 14.519 0.328641 -0.517333
upperback 1.93632 0.310118 -0.441115
thorax -6.09016 0.152855 -0.23297
lowerneck -12.2187 -5.84178 -9.04669
upperneck 4.66296 -7.12457 8.96626
head 4.02532 -3.25245 3.69481
rclavicle -8.00108e-015 2.5842e-015
rhumerus 1.59283 16.9962 -73.6732
rradius 119.829
rwrist -3.43013
rhand -35.2967 9.01171
rfingers 7.12502
rthumb -8.43109 -20.8
lclavicle -8.00108e-015 2.5842e-015
lhumerus -49.3033 -4.89937 92.6185
lradius 99.037
lwrist 28.6557
lhand -31.9048 15.0169
lfingers 7.12502
lthumb -5.15678 44.9341
rfemur -13.2824 17.3358 22.8882
rtibia 48.5046
rfoot -27.1818 -6.53855
rtoes -6.09036
lfemur -21.8387 10.841 -9.3001
ltibia 73.4259
lfoot -13.6339 2.1609
ltoes -11.3837
